<?xml version="1.0"?><svg width="640" height="480" xmlns="http://www.w3.org/2000/svg">
 <title>shopping cart - purple</title>
 <metadata id="metadata7">image/svg+xmlshopping cartcartsupermarketshoppingshopping cartSergio Luiz Araujo Silva</metadata>
 <g>
  <path d="m44.753944,3.91697c0.867889,0.010844 1.761353,0.077764 2.614731,0.211424c0.015457,0.002816 0.032471,-0.002696 0.047997,0l86.179626,12.858325c5.480774,0.821552 10.07576,4.105 12.103531,8.628593c0.000259,0.014078 0.000259,0.028158 0,0.042177l39.991302,89.584949l390.276581,8.501701c4.488464,0.0979 8.701599,1.868965 11.619751,4.821838c2.917908,2.952911 4.322388,6.879684 3.776672,10.785721l-21.544983,155.694901c-0.888672,6.532166 -7.066467,11.712158 -14.573181,12.223877l-278.243195,19.329681l-55.145294,37.898041c-0.062866,0.044128 -0.127548,0.086273 -0.193558,0.12677c-0.058823,0.035828 -0.133347,0.049622 -0.193802,0.084717c-0.068192,0.039307 -0.125366,0.088318 -0.193558,0.12677c-10.063599,6.562592 -12.558182,15.503021 -11.13559,20.471741c0.810394,2.831238 2.047668,4.911469 4.986832,6.513702c2.939163,1.602234 8.016418,2.761871 16.703278,2.326324c0.032501,-0.000366 0.065033,-0.000366 0.097443,0c0.279083,-0.008148 0.592316,-0.005402 0.871399,0c0.046356,0.000946 0.099243,-0.001312 0.145599,0l331.839264,0.846039l0.048096,0c8.720764,-0.048737 16.060242,6.341278 16.025391,13.957916c-0.033997,7.617401 -7.402222,13.982971 -16.122253,13.873444c-0.017151,-0.000244 -0.032654,0.000244 -0.048157,0l-24.256104,-0.042267c9.012512,5.019043 15.05719,13.799133 15.05719,23.770874c0,15.509338 -14.540466,28.212067 -32.292847,28.212067c-17.753174,0 -32.293152,-12.702728 -32.293152,-28.212067c0,-10.025635 6.060181,-18.892731 15.15387,-23.897888l-273.256775,-0.676758c9.845093,4.84903 16.558258,14.054504 16.558258,24.574646c0,15.509338 -14.5401,28.212067 -32.293274,28.212067c-17.752945,0 -32.293152,-12.702728 -32.293152,-28.212067c0,-13.469391 10.952881,-24.824097 25.46669,-27.577576c-13.723022,-4.240967 -24.264801,-12.986298 -30.792145,-26.350891c-0.096222,-0.1633 -0.177307,-0.333069 -0.242081,-0.507538c-5.004318,-17.482361 3.871292,-36.48938 22.174011,-48.853088c0.047409,-0.043365 0.09581,-0.085571 0.145584,-0.126892c0.044983,-0.029938 0.052841,-0.096832 0.096222,-0.126648c0.160095,-0.169647 0.338165,-0.325531 0.532562,-0.465393l39.071335,-26.773895l-121.861511,-272.688324l-77.319527,-11.504774c-0.015503,-0.002754 -0.032646,0.002699 -0.048172,0c-8.122353,-1.140873 -14.062569,-7.754559 -13.36261,-14.930805c0.701107,-7.190084 7.872192,-12.829388 16.122238,-12.731435l-0.000534,0zm152.702415,132.812339l22.464874,50.333405l29.291077,0l0,-49.191345l-51.755951,-1.142059zm62.940216,1.395782l0,48.937622l54.079803,0l0,-47.753311l-54.079803,-1.184311zm65.264069,1.395859l0,47.541763l54.079712,0l0,-46.357468l-54.079712,-1.184296zm65.263977,1.43808l0,46.103683l54.079803,0l0,-44.919373l-54.079803,-1.184311zm65.263763,1.43808l0,44.665604l54.080109,0l0,-43.481277l-54.080109,-1.184326zm65.263885,1.395813l0,43.269791l39.652527,0l5.858276,-42.254669l-45.510803,-1.015121zm38.296936,52.998093l-38.296936,0l0,44.200256l32.196228,0l6.100708,-44.200256zm-49.480713,0l-54.080109,0l0,44.200256l54.080109,0l0,-44.200256zm-65.263977,0l-54.079895,0l0,44.200256l54.079895,0l0,-44.200256zm-65.26416,0l-54.079712,0l0,44.200256l54.079712,0l0,-44.200256zm-65.263733,0l-54.080048,0l0,44.200256l54.080048,0l0,-44.200256zm-65.264038,0l-24.982483,0l19.753571,44.200256l5.228912,0l0,-44.200256zm303.080322,53.928528l-30.840332,0l0,31.722656l26.725403,-1.860931l4.114929,-29.861725l0,0zm-42.024414,0l-54.080109,0l0,36.248505l54.080109,-3.764496l0,-32.484009zm-65.263977,0l-54.079895,0l0,40.774261l54.079895,-3.722107l0,-37.052155zm-65.26416,0l-54.079712,0l0,45.342255l54.079712,-3.764343l0,-41.577911l0,0zm-65.263733,0l-54.080048,0l0,26.900818l10.264038,22.967316c1.332306,-0.563934 2.78479,-0.910126 4.26059,-1.015198l39.55542,-2.749268l0,-46.103668l0,0zm-65.264038,0l-0.823181,0l0.823181,1.987946l0,-1.987946zm273.982788,179.254333c-10.552124,0 -18.97876,7.361816 -18.97876,16.580627c0,9.218475 8.426636,16.537964 18.97876,16.537964c10.551819,0 18.979065,-7.319489 18.979065,-16.537964c0,-9.218811 -8.427246,-16.580627 -18.979065,-16.580627zm-306.130615,0c-10.5522,0 -18.978958,7.361816 -18.978958,16.580627c0,9.218475 8.426758,16.537964 18.978958,16.537964c10.552216,0 18.978668,-7.319489 18.978668,-16.537964c0,-9.218811 -8.426453,-16.580627 -18.978668,-16.580627zm306.130615,7.867371c5.732666,0 10.312378,4.000916 10.312378,9.009186c0,5.00827 -4.579712,8.966919 -10.312378,8.966919c-5.73291,0 -10.312439,-3.958649 -10.312439,-8.966919c0,-5.00827 4.579529,-9.009186 10.312439,-9.009186zm-306.130615,0c5.732468,0 10.312286,4.000916 10.312286,9.009186c0,5.00827 -4.579819,8.966919 -10.312286,8.966919c-5.732773,0 -10.312561,-3.958649 -10.312561,-8.966919c0,-5.00827 4.579788,-9.009186 10.312561,-9.009186z" id="path3847" stroke-width="15.5" fill="#ff7f00"/>
  <title>Layer 1</title>
 </g>
</svg>